<?xml version="1.0" encoding="utf-8"?>
<!-- Generator: Adobe Illustrator 26.5.0, SVG Export Plug-In . SVG Version: 6.00 Build 0)  -->
<svg version="1.1" id="Calque_1" xmlns="http://www.w3.org/2000/svg" xmlns:xlink="http://www.w3.org/1999/xlink" x="0px" y="0px"
	 viewBox="0 0 1920 1080" style="enable-background:new 0 0 1920 1080;" xml:space="preserve">
<style type="text/css">
	.st0{fill:none;stroke:#FFFFFF;stroke-width:3.1061;stroke-miterlimit:10;}
</style>
<path class="st0" d="M965.1,302.66c0,62.29,59.27,112.79,132.37,112.79c73.11,0,132.37-50.5,132.37-112.79
	s-59.27-112.79-132.37-112.79C1024.36,189.87,965.1,240.37,965.1,302.66z M1146.3,426.48c0,10.2,9.7,18.46,21.67,18.46
	c11.97,0,21.67-8.27,21.67-18.46c0-10.2-9.7-18.46-21.67-18.46C1156,408.02,1146.3,416.28,1146.3,426.48z M1176.86,456.76
	c0,5.91,5.62,10.69,12.55,10.69c6.93,0,12.55-4.79,12.55-10.69c0-5.91-5.62-10.7-12.55-10.7
	C1182.48,446.06,1176.86,450.85,1176.86,456.76z"/>
<path class="st0" d="M1235.74,144.4c0-87.5,83.25-158.44,185.95-158.44c102.7,0,185.95,70.93,185.95,158.44
	c0,73.82-59.25,135.85-139.45,153.44c2.82,24.25,15.59,57.27,50.13,69.02c0,0-85.91,4.71-128.42-66.37
	C1302.35,287.63,1235.74,222.66,1235.74,144.4z"/>
<path class="st0" d="M1977.58,845.7c-75.18,0-136.13,53.87-136.13,117.92c0,64.06,56.29,121.29,164.35,114.12
	c-1.65,21.5-19.3,31.42-28.22,34.27c59.65,4.32,136.13-48.27,136.13-139.57C2113.7,898.01,2052.76,845.7,1977.58,845.7z"/>
<path class="st0" d="M1113.76,1005.64c0,76.16,72.46,137.91,161.85,137.91s161.85-61.74,161.85-137.91
	c0-76.16-72.46-137.91-161.85-137.91S1113.76,929.47,1113.76,1005.64z M1335.32,1157.02c0,12.47,11.86,22.57,26.49,22.57
	s26.49-10.11,26.49-22.57s-11.86-22.57-26.49-22.57S1335.32,1144.56,1335.32,1157.02z M1372.68,1194.05
	c0,7.22,6.87,13.08,15.35,13.08c8.48,0,15.35-5.85,15.35-13.08c0-7.22-6.87-13.08-15.35-13.08
	C1379.55,1180.97,1372.68,1186.83,1372.68,1194.05z"/>
<path class="st0" d="M1365.21,968.74c0-87.14,82.91-157.77,185.17-157.77s185.17,70.64,185.17,157.77
	c0,73.51-59.01,135.28-138.87,152.8c2.81,24.15,15.52,57.03,49.92,68.73c0,0-85.55,4.69-127.89-66.1
	C1431.55,1111.37,1365.21,1046.67,1365.21,968.74z"/>
<path class="st0" d="M655.92,925.81v124.96c0,47.44,38.45,85.89,85.89,85.89h42.69c47.44,0,85.89-38.45,85.89-85.89V925.81
	c0-47.44-38.45-85.89-85.89-85.89h-42.69C694.37,839.92,655.92,878.38,655.92,925.81z M780.24,1170.21
	c0,10.37,9.87,18.78,22.04,18.78c12.17,0,22.04-8.41,22.04-18.78s-9.87-18.78-22.04-18.78
	C790.11,1151.43,780.24,1159.84,780.24,1170.21z M811.33,1201.02c0,6.01,5.72,10.88,12.77,10.88c7.05,0,12.77-4.87,12.77-10.88
	c0-6.01-5.72-10.88-12.77-10.88C817.05,1190.14,811.33,1195.01,811.33,1201.02z"/>
<path class="st0" d="M799.32,892.9c0-90.59,86.19-166.77,192.51-166.77c106.32,0,192.51,73.99,192.51,179.24
	c0,129.11-108.16,203.49-192.51,197.38c12.63-4.02,37.57-18.06,39.91-48.46C878.93,1064.42,799.32,983.49,799.32,892.9z"/>
<path class="st0" d="M997.12-12.7c0-79.61,75.75-144.15,169.18-144.15s169.18,64.54,169.18,144.15
	c0,79.61-75.75,144.15-169.18,144.15c-13.18,0-25.99-1.33-38.3-3.76l-77.84,52.5l22.65-72.76C1027.2,81.61,997.12,37.45,997.12-12.7
	z"/>
<path class="st0" d="M1232.52,398.86v35.23c0,53.93,43.72,97.65,97.65,97.65h150.97c53.93,0,97.65-43.72,97.65-97.65v-35.23
	c0-53.93-43.72-97.65-97.65-97.65h-150.97C1276.24,301.21,1232.52,344.93,1232.52,398.86z M1309.95,591.24
	c13.84,0,25.06-9.56,25.06-21.35s-11.22-21.35-25.06-21.35c-13.84,0-25.06,9.56-25.06,21.35S1296.11,591.24,1309.95,591.24z
	 M1270.62,604.92c0,6.83,6.5,12.37,14.52,12.37c8.02,0,14.52-5.54,14.52-12.37s-6.5-12.37-14.52-12.37
	C1277.12,592.55,1270.62,598.08,1270.62,604.92z"/>
<path class="st0" d="M804.27,107.41h125.34c60.94,0,110.34,49.4,110.34,110.34v151.39c0,60.94-49.4,110.34-110.34,110.34H822.08
	l-73.91,49.84l17.66-56.74c-41.99-15.61-71.9-56.03-71.9-103.45V217.75C693.93,156.81,743.33,107.41,804.27,107.41z"/>
<path class="st0" d="M858.6,549.12c0-70.96,67.52-128.49,150.81-128.49c83.29,0,150.81,57.53,150.81,128.49
	c0,59.87-48.06,110.17-113.09,124.44c2.29,19.67,12.64,46.45,40.66,55.97c0,0-69.67,3.82-104.15-53.83
	C912.63,665.27,858.6,612.59,858.6,549.12z"/>
<path class="st0" d="M1412.66,596.94h88.21c42.89,0,77.65,34.77,77.65,77.65v122.92c0,42.89-34.77,77.65-77.65,77.65h-13.2
	c2.57,15.45,11.28,34.75,32.37,41.92c0,0-54.95,2.98-83.11-41.92h-24.28c-42.89,0-77.65-34.77-77.65-77.65V674.59
	C1335.01,631.71,1369.78,596.94,1412.66,596.94z"/>
<path class="st0" d="M831.54,505.61H712.38c-57.93,0-104.89,46.96-104.89,104.89v42.53c0,57.93,46.96,104.89,104.89,104.89h32.79
	c38.03,60.65,112.26,56.63,112.26,56.63c-28.5-9.69-40.25-35.76-43.73-56.63h17.84c57.93,0,104.89-46.96,104.89-104.89v-42.53
	C936.43,552.57,889.47,505.61,831.54,505.61z"/>
<path class="st0" d="M1260.06,794.58c95.12,0,172.24-65.7,172.24-146.75c0-81.05-77.11-146.75-172.24-146.75
	c-95.12,0-172.24,65.7-172.24,146.75C1087.82,728.87,1164.93,794.58,1260.06,794.58z M1168.33,832.94
	c15.57,0,28.19-10.75,28.19-24.02c0-13.27-12.62-24.02-28.19-24.02s-28.19,10.75-28.19,24.02
	C1140.14,822.19,1152.76,832.94,1168.33,832.94z M1124.09,848.33c0,7.69,7.31,13.92,16.33,13.92c9.02,0,16.33-6.23,16.33-13.92
	c0-7.69-7.31-13.92-16.33-13.92C1131.41,834.41,1124.09,840.64,1124.09,848.33z"/>
<path class="st0" d="M-8.24,144.4c0-87.5,83.25-158.44,185.95-158.44S363.66,56.9,363.66,144.4c0,73.82-59.25,135.85-139.45,153.44
	c2.82,24.25,15.59,57.27,50.13,69.02c0,0-85.91,4.71-128.42-66.37C58.38,287.63-8.24,222.66-8.24,144.4z"/>
<path class="st0" d="M121.24,968.74c0-87.14,82.91-157.77,185.17-157.77s185.17,70.64,185.17,157.77
	c0,73.51-59.01,135.28-138.87,152.8c2.81,24.15,15.52,57.03,49.92,68.73c0,0-85.55,4.69-127.89-66.1
	C187.58,1111.37,121.24,1046.67,121.24,968.74z"/>
<path class="st0" d="M619.32,699.24h-92.81c-56.77,0-102.79,46.02-102.79,102.79v126.54c0,56.77,46.02,102.79,102.79,102.79h3.27
	c-3.41,20.45-14.93,46-42.85,55.49c0,0,72.75,3.94,110.01-55.49h22.39c56.77,0,102.79-46.02,102.79-102.79V802.03
	C722.11,745.26,676.09,699.24,619.32,699.24z"/>
<path class="st0" d="M372.79-129.97H494c58.93,0,106.7,47.77,106.7,106.7v71.71c0,58.93-47.77,106.7-106.7,106.7h-18.14
	c3.54,21.23,15.5,47.75,44.49,57.6c0,0-75.52,4.09-114.2-57.6h-33.36c-58.93,0-106.7-47.77-106.7-106.7v-71.71
	C266.08-82.19,313.85-129.97,372.79-129.97z"/>
<path class="st0" d="M-11.46,398.86v35.23c0,53.93,43.72,97.65,97.65,97.65h150.97c53.93,0,97.65-43.72,97.65-97.65v-35.23
	c0-53.93-43.72-97.65-97.65-97.65H86.19C32.26,301.21-11.46,344.93-11.46,398.86z M65.97,591.24c13.84,0,25.06-9.56,25.06-21.35
	s-11.22-21.35-25.06-21.35s-25.06,9.56-25.06,21.35S52.13,591.24,65.97,591.24z M26.65,604.92c0,6.83,6.5,12.37,14.52,12.37
	c8.02,0,14.52-5.54,14.52-12.37s-6.5-12.37-14.52-12.37C33.15,592.55,26.65,598.08,26.65,604.92z"/>
<path class="st0" d="M664.4,367.61c0-72.82-69.28-131.84-154.74-131.84s-154.74,59.03-154.74,131.84
	c0,72.82,69.28,131.84,154.74,131.84S664.4,440.42,664.4,367.61z M617.4,512.34c0-11.92-11.34-21.58-25.33-21.58
	c-13.99,0-25.33,9.66-25.33,21.58c0,11.92,11.34,21.58,25.33,21.58C606.06,533.92,617.4,524.26,617.4,512.34z M617.14,535.24
	c-8.1,0-14.67,5.6-14.67,12.5c0,6.9,6.57,12.5,14.67,12.5c8.1,0,14.67-5.6,14.67-12.5C631.81,540.83,625.24,535.24,617.14,535.24z"
	/>
<path class="st0" d="M168.68,596.94h88.21c42.89,0,77.65,34.77,77.65,77.65v122.92c0,42.89-34.77,77.65-77.65,77.65h-13.2
	c2.57,15.45,11.28,34.75,32.37,41.92c0,0-54.95,2.98-83.11-41.92h-24.28c-42.89,0-77.65-34.77-77.65-77.65V674.59
	C91.03,631.71,125.8,596.94,168.68,596.94z"/>
<path class="st0" d="M547.89,27.4v57.34c0,47.12,38.2,85.33,85.33,85.33h96.93c47.12,0,85.33-38.2,85.33-85.33V27.4
	c0-47.12-38.2-85.33-85.33-85.33h-96.93C586.09-57.93,547.89-19.73,547.89,27.4z M615.55,222.05c12.09,0,21.9-8.35,21.9-18.66
	c0-10.3-9.8-18.66-21.9-18.66s-21.9,8.35-21.9,18.66C593.65,213.7,603.45,222.05,615.55,222.05z M581.19,234
	c0,5.97,5.68,10.81,12.69,10.81s12.69-4.84,12.69-10.81c0-5.97-5.68-10.81-12.69-10.81S581.19,228.03,581.19,234z"/>
<path class="st0" d="M368.08,509.95h112.31c54.6,0,98.86,44.26,98.86,98.86v66.44c0,42.49-26.81,78.71-64.43,92.69l15.83,50.84
	l-66.22-44.66h-96.35c-54.6,0-98.86-44.26-98.86-98.86v-66.44C269.21,554.21,313.48,509.95,368.08,509.95z"/>
<path class="st0" d="M1777.21,708.39v124.96c0,47.44,38.45,85.89,85.89,85.89h42.69c47.44,0,85.89-38.45,85.89-85.89V708.39
	c0-47.44-38.45-85.89-85.89-85.89h-42.69C1815.66,622.5,1777.21,660.95,1777.21,708.39z M1901.53,952.79
	c0,10.37,9.87,18.78,22.04,18.78c12.17,0,22.04-8.41,22.04-18.78s-9.87-18.78-22.04-18.78
	C1911.4,934.01,1901.53,942.42,1901.53,952.79z M1932.62,983.6c0,6.01,5.72,10.88,12.77,10.88c7.05,0,12.77-4.87,12.77-10.88
	c0-6.01-5.72-10.88-12.77-10.88C1938.34,972.72,1932.62,977.59,1932.62,983.6z"/>
<path class="st0" d="M1677.65,118.4c0-90.59,86.19-166.77,192.51-166.77s192.51,73.99,192.51,179.24
	c0,129.11-108.16,203.49-192.51,197.38c12.63-4.02,37.57-18.06,39.91-48.46C1757.26,289.93,1677.65,208.99,1677.65,118.4z"/>
<path class="st0" d="M1515.86,409.64c0-87.14,82.91-157.77,185.17-157.77c102.27,0,185.17,70.64,185.17,157.77
	c0,73.51-59.01,135.28-138.87,152.8c2.81,24.15,15.52,57.03,49.92,68.73c0,0-85.55,4.69-127.89-66.1
	C1582.2,552.27,1515.86,487.58,1515.86,409.64z"/>
<path class="st0" d="M1740.61,481.81h-92.81c-56.77,0-102.79,46.02-102.79,102.79v126.54c0,56.77,46.02,102.79,102.79,102.79h3.27
	c-3.41,20.45-14.93,46-42.85,55.49c0,0,72.75,3.94,110.01-55.49h22.39c56.77,0,102.79-46.02,102.79-102.79V584.6
	C1843.4,527.84,1797.38,481.81,1740.61,481.81z"/>
<path class="st0" d="M1557.09,40.96h88.21c42.89,0,77.65,34.77,77.65,77.65v122.92c0,42.89-34.77,77.65-77.65,77.65h-13.2
	c2.57,15.45,11.28,34.75,32.37,41.92c0,0-54.95,2.98-83.11-41.92h-24.28c-42.89,0-77.65-34.77-77.65-77.65V118.61
	C1479.44,75.72,1514.21,40.96,1557.09,40.96z"/>
</svg>
